<svg width="200" height="41" viewBox="0 0 200 41" fill="none" xmlns="http://www.w3.org/2000/svg">
<g clip-path="url(#clip0)">
<path d="M71.1296 15.2896V39.6296C71.1296 40.1696 70.9496 40.3495 70.4396 40.3495H69.2396C68.6996 40.3495 68.5196 40.1696 68.5196 39.6296V28.5096H54.6796V39.6296C54.6796 40.1696 54.5296 40.3495 53.9896 40.3495H52.7896C52.2396 40.3495 52.0596 40.1696 52.0596 39.6296V15.2896C52.0596 14.7496 52.2396 14.5596 52.7896 14.5596H53.9896C54.5296 14.5596 54.6796 14.7496 54.6796 15.2896V26.0396H68.5196V15.2896C68.5196 14.7496 68.6996 14.5596 69.2396 14.5596H70.4296C70.9496 14.5596 71.1296 14.7496 71.1296 15.2896Z" fill="#192643"/>
<path d="M83.2298 21.1396C88.9998 21.1396 90.4898 24.4096 90.4898 28.3296V37.8496C90.4898 39.1196 90.1998 39.4796 89.1898 39.9196C87.2717 40.6266 85.2323 40.9461 83.1898 40.8596C76.8698 40.8596 75.3398 38.8596 75.3398 35.2296C75.3398 31.0496 77.6298 29.5996 83.3398 29.5996C84.9328 29.6199 86.5228 29.7435 88.0998 29.9696V28.2896C88.0998 25.4596 87.1598 23.2896 83.1998 23.2896C80.6498 23.2896 79.0598 24.2896 78.1098 25.9396C77.8198 26.3396 77.6698 26.4496 77.1998 26.2296L76.3298 25.8696C75.8598 25.6896 75.7098 25.4296 75.9698 24.9196C77.1998 22.5596 79.5598 21.1396 83.2298 21.1396ZM83.0498 31.6396C79.1198 31.6396 77.8198 32.7296 77.8198 35.1996C77.8198 37.4796 78.7198 38.8296 82.9698 38.8296C84.4588 38.8873 85.9467 38.6912 87.3698 38.2496C87.9098 38.0296 88.0598 37.8796 88.0598 37.1896V31.9596C87.3298 31.8896 85.1498 31.6396 83.0498 31.6396Z" fill="#192643"/>
<path d="M97.3596 14.1298V22.2598C99.196 21.5649 101.137 21.1862 103.1 21.1398C108.1 21.1398 110.25 23.7898 110.25 28.2598V33.4197C110.25 38.2497 107.75 40.8597 102.44 40.8597C100.34 40.9156 98.2515 40.5447 96.2996 39.7697C95.1396 39.2597 94.8896 38.9697 94.8896 37.7697V14.1298C94.8896 13.6198 95.0696 13.4697 95.5396 13.4697H96.6996C97.1796 13.4697 97.3596 13.6198 97.3596 14.1298ZM102.77 23.3898C100.908 23.4226 99.0709 23.8165 97.3596 24.5497V36.9797C97.3596 37.5597 97.3596 37.6697 98.0096 37.9197C99.3684 38.4261 100.81 38.6737 102.26 38.6497C106.08 38.6497 107.82 36.8698 107.82 33.3798V28.3798C107.82 25.1698 106.18 23.3597 102.77 23.3597V23.3898Z" fill="#192643"/>
<path d="M117.15 16.3603V16.6204C117.15 17.6204 116.83 17.9603 115.81 17.9603H115.59C114.59 17.9603 114.25 17.6304 114.25 16.6204V16.3603C114.25 15.3603 114.58 15.0203 115.59 15.0203H115.81C116.83 15.0003 117.15 15.3603 117.15 16.3603ZM116.94 22.3603V39.7203C116.94 40.2303 116.75 40.3704 116.28 40.3704H115.12C114.65 40.3704 114.47 40.2303 114.47 39.7203V22.3603C114.47 21.8503 114.65 21.7004 115.12 21.7004H116.28C116.75 21.6804 116.94 21.8303 116.94 22.3603Z" fill="#192643"/>
<path d="M122.43 21.6803V17.9803C122.43 17.4703 122.61 17.3203 123.08 17.3203H124.21C124.72 17.3203 124.86 17.4703 124.86 17.9803V21.6803H130.13C130.6 21.6803 130.78 21.8303 130.78 22.3403V23.2803C130.78 23.7503 130.6 23.9403 130.13 23.9403H124.83V33.3603C124.83 37.6803 126.11 38.5203 130.03 38.5203C130.54 38.5203 130.68 38.7003 130.68 39.2103V40.2103C130.68 40.7203 130.54 40.8603 130.03 40.8603C124.43 40.9703 122.4 39.3003 122.4 33.4503V21.6803H122.43Z" fill="#192643"/>
<path d="M141.03 21.1396C146.8 21.1396 148.29 24.4096 148.29 28.3296V37.8496C148.29 39.1196 148 39.4796 146.98 39.9196C145.062 40.6273 143.022 40.9469 140.98 40.8596C134.66 40.8596 133.14 38.8596 133.14 35.2296C133.14 31.0496 135.43 29.5996 141.14 29.5996C142.733 29.6203 144.323 29.7439 145.9 29.9696V28.2896C145.9 25.4596 144.9 23.2896 140.99 23.2896C138.45 23.2896 136.85 24.2896 135.91 25.9396C135.62 26.3396 135.47 26.4496 135 26.2296L134.13 25.8696C133.66 25.6896 133.51 25.4296 133.77 24.9196C135 22.5596 137.36 21.1396 141.03 21.1396ZM140.84 31.6396C136.92 31.6396 135.61 32.7296 135.61 35.1996C135.61 37.4796 136.52 38.8296 140.77 38.8296C142.259 38.8873 143.747 38.6912 145.17 38.2496C145.71 38.0296 145.86 37.8796 145.86 37.1896V31.9596C145.13 31.8896 142.95 31.6396 140.84 31.6396Z" fill="#192643"/>
<path d="M160.82 21.1402C165.82 21.1402 168.05 23.7902 168.05 28.2602V39.7002C168.05 40.2102 167.87 40.3501 167.4 40.3501H166.27C165.76 40.3501 165.62 40.2102 165.62 39.7002V28.3602C165.62 25.0902 164.02 23.4202 160.53 23.4202C158.887 23.4098 157.253 23.6803 155.7 24.2201C155.52 24.2869 155.367 24.4138 155.269 24.5795C155.171 24.7451 155.132 24.9396 155.16 25.1302V39.7301C155.16 40.2401 154.97 40.3802 154.5 40.3802H153.34C152.87 40.3802 152.69 40.2401 152.69 39.7301V24.3602C152.69 23.2402 152.98 22.8402 154.07 22.3602C156.214 21.4969 158.511 21.0817 160.82 21.1402Z" fill="#192643"/>
<path d="M172.51 21.6803V17.9803C172.51 17.4703 172.69 17.3203 173.16 17.3203H174.29C174.79 17.3203 174.94 17.4703 174.94 17.9803V21.6803H180.21C180.68 21.6803 180.86 21.8303 180.86 22.3403V23.2803C180.86 23.7503 180.68 23.9403 180.21 23.9403H174.94V33.3603C174.94 37.6803 176.21 38.5203 180.13 38.5203C180.64 38.5203 180.79 38.7003 180.79 39.2103V40.2103C180.79 40.7203 180.64 40.8603 180.13 40.8603C174.54 40.9703 172.51 39.3003 172.51 33.4503V21.6803Z" fill="#192643"/>
<path d="M191.03 21.1396C196.03 21.1396 199.03 23.6796 199.03 27.8196V34.2096C199.03 38.3596 196.03 40.8596 191.03 40.8596C186.03 40.8596 183.08 38.3596 183.08 34.2096V27.8196C183.08 23.6796 186.09 21.1396 191.03 21.1396ZM191.03 23.3496C187.69 23.3496 185.51 25.0196 185.51 27.8196V34.2096C185.51 36.9796 187.69 38.6496 191.03 38.6496C194.37 38.6496 196.59 36.9796 196.59 34.2096V27.8196C196.59 25.0196 194.43 23.3596 191.03 23.3596V23.3496Z" fill="#192643"/>
<path d="M43.9997 38.2003C43.8865 38.0544 43.7428 37.935 43.5787 37.8504C43.4147 37.7658 43.2341 37.7179 43.0497 37.7102C42.7028 37.704 42.3615 37.6221 42.0497 37.4702C41.8197 37.2902 40.2097 35.3502 39.7997 34.7902C39.3897 34.2302 38.3597 32.5402 37.7997 31.6902L37.4497 31.1102C36.9012 30.0451 36.4751 28.9213 36.1797 27.7603C35.8058 26.3521 35.644 24.8961 35.6997 23.4402C36.2956 22.3149 36.9636 21.2293 37.6997 20.1902L37.8397 19.9602C38.0559 19.6582 38.3402 19.4116 38.6697 19.2402C38.9437 19.1298 39.2242 19.0363 39.5097 18.9602C39.9731 18.8344 40.4275 18.6774 40.8697 18.4902C41.5697 18.1602 41.8097 17.2203 41.9697 16.2603C42.0345 16.0177 42.0057 15.7596 41.889 15.5372C41.7723 15.3149 41.5762 15.1446 41.3397 15.0602C41.0685 14.9426 40.8132 14.7915 40.5797 14.6102L40.4797 14.5202C39.7562 13.6924 38.7965 13.1061 37.7297 12.8402C37.1497 12.7902 35.8697 12.8402 35.2497 12.8402C35.0663 12.5752 34.8551 12.3305 34.6197 12.1102C34.3856 11.8582 34.1684 11.591 33.9697 11.3102C33.5397 10.7302 33.2997 10.4103 32.9697 10.5103C32.3997 10.6703 32.2597 12.3402 32.2597 12.3602C32.2115 12.849 32.2115 13.3414 32.2597 13.8302C32.294 14.0455 32.3173 14.2625 32.3297 14.4802C31.9773 15.2668 31.5379 16.0115 31.0197 16.7003C30.9197 16.8103 30.7597 16.9902 30.5797 17.2102C30.1811 17.7204 29.7395 18.1956 29.2597 18.6302C28.3317 18.7164 27.3977 18.7164 26.4697 18.6302C24.7386 18.4824 23.0163 18.2454 21.3097 17.9202C20.3097 17.6602 15.3897 16.9202 15.1697 16.8302C13.1811 16.5575 11.1769 16.4139 9.16968 16.4002C8.77664 16.035 8.43968 15.6138 8.16968 15.1502C7.45546 14.2073 6.97869 13.1063 6.77968 11.9402V11.6702C6.74724 10.7813 6.82109 9.89162 6.99968 9.0202L7.11968 8.62024C7.74501 6.86208 7.95382 4.9828 7.72968 3.13025C7.18968 0.360248 5.72968 -0.0297595 5.22968 0.0602405C4.72968 0.15024 4.30968 0.360228 4.34968 1.36023C4.40745 1.8268 4.55337 2.27816 4.77968 2.69025C5.01992 3.17945 5.19798 3.69678 5.30968 4.23022C5.43349 5.50907 5.23405 6.79853 4.72968 7.98022C4.21975 9.18489 3.93504 10.4728 3.88968 11.7802C3.94016 13.8451 4.49275 15.8667 5.49968 17.6702C4.74767 19.0977 4.33046 20.6776 4.27968 22.2902C4.37309 23.3276 4.55713 24.3549 4.82968 25.3602C4.20895 26.4913 3.39694 27.5063 2.42968 28.3602L2.26968 28.5103C2.04949 28.654 1.86307 28.8437 1.72324 29.0664C1.5834 29.2891 1.49349 29.5395 1.45968 29.8002C1.45968 30.2402 1.25968 30.9802 1.11968 31.6302C0.979681 32.2802 0.899681 32.6302 0.869681 32.9402C0.725416 33.5582 0.531453 34.1635 0.289683 34.7502C0.189683 35.0302 0.109682 35.2502 0.0696822 35.3802C-0.0258709 35.6219 -0.0603472 35.8834 -0.0306939 36.1415C-0.00104068 36.3997 0.0918286 36.6465 0.239684 36.8602C0.423512 37.3443 0.567328 37.8426 0.669684 38.3502C0.899684 39.3502 0.999681 39.6702 1.18968 39.8402L1.27968 39.9302C1.52968 40.1802 1.68968 40.2302 2.35968 40.2502H2.82968C3.42968 40.2502 3.93968 40.2502 3.98968 40.2502C4.43968 40.1802 4.90968 39.8802 4.87968 39.3802C4.87654 39.1224 4.81772 38.8683 4.70726 38.6353C4.5968 38.4023 4.4373 38.1959 4.23968 38.0302C3.9157 37.8455 3.58187 37.6786 3.23968 37.5302C3.05175 37.1029 2.94007 36.646 2.90968 36.1802C3.16668 35.5543 3.47787 34.952 3.83968 34.3802C3.90653 34.5534 3.99381 34.7178 4.09968 34.8702C5.02968 36.2602 6.50968 38.7802 6.82968 39.3302C7.44968 40.4002 8.11968 40.3302 8.15968 40.3302C8.39968 40.3302 9.56968 40.3302 9.76968 40.3302H9.82968C9.99121 40.339 10.1528 40.3142 10.3043 40.2574C10.4557 40.2006 10.5938 40.1131 10.7097 40.0002C10.7821 39.9119 10.8347 39.8091 10.864 39.6987C10.8933 39.5883 10.8987 39.4729 10.8797 39.3602C10.7897 38.3602 10.3297 38.1002 9.95968 38.0002L9.33968 37.8402L9.02968 37.7702C8.51935 36.9067 8.07153 36.0077 7.68968 35.0802C7.68968 35.0802 7.68968 34.9802 7.68968 34.9302C7.68968 34.8802 7.68968 34.7202 7.98968 34.4302C8.58968 33.9102 11.4997 30.2402 12.5597 28.8002C12.6697 28.6502 13.1097 28.7002 13.2897 28.7202H13.4697L14.4097 28.8903C17.349 29.4962 20.3205 29.9336 23.3097 30.2003C23.0797 30.7003 22.6297 31.9102 22.0897 33.6102C22.0924 33.6569 22.0924 33.7036 22.0897 33.7502C21.8825 34.212 21.8402 34.7309 21.9697 35.2202C22.0397 35.4802 22.1297 35.8902 22.2197 36.3502C22.4069 37.4141 22.6914 38.4584 23.0697 39.4702C23.1411 39.7359 23.3032 39.9682 23.5278 40.1271C23.7524 40.2859 24.0254 40.3613 24.2997 40.3402H25.2297H25.4297C25.7497 40.3402 26.2697 40.2702 26.4297 39.8702C26.4864 39.6464 26.4953 39.4131 26.4556 39.1857C26.416 38.9582 26.3288 38.7417 26.1997 38.5502C25.9763 38.3069 25.6827 38.1391 25.3597 38.0703L25.1797 38.0103C24.948 37.2973 24.7839 36.564 24.6897 35.8203C24.8544 35.5074 25.0558 35.2154 25.2897 34.9503C26.0993 34.0315 26.9678 33.1663 27.8897 32.3602C28.5597 31.7602 29.1497 31.2402 29.4997 30.8502C30.7715 31.6259 32 32.4705 33.1797 33.3802C33.4897 33.6102 33.7397 33.7702 34.0297 33.9602L34.4697 34.2502C35.1487 34.6979 35.803 35.182 36.4297 35.7003C37.6538 36.7943 38.8156 37.9561 39.9097 39.1802C40.1197 39.4502 40.8497 40.3203 41.4597 40.3203H42.2797C43.7297 40.3203 44.2197 40.3202 44.2797 39.8402C44.4004 39.2779 44.3001 38.6907 43.9997 38.2003ZM2.99968 38.1102C3.343 38.2485 3.67703 38.4089 3.99968 38.5902C4.20053 38.8073 4.30823 39.0946 4.29968 39.3903C4.22575 39.4595 4.13062 39.5018 4.02968 39.5103C3.52016 39.5414 3.00921 39.5414 2.49968 39.5103C1.99968 39.5103 1.97968 39.5103 1.89968 39.3903L1.79968 39.3102C1.66222 38.9285 1.55195 38.5376 1.46968 38.1403C1.36255 37.5784 1.19836 37.0288 0.979682 36.5002C0.719682 36.0002 0.749681 35.8802 0.849681 35.5502C0.849681 35.4302 0.969682 35.2102 1.06968 34.9602C1.33699 34.3148 1.54127 33.645 1.67968 32.9602C1.67968 32.7302 1.80968 32.2402 1.91968 31.7202C2.06879 31.0933 2.1856 30.4592 2.26968 29.8202C2.26968 29.4602 2.48968 29.3002 2.84968 28.9802L3.01968 28.8302C3.81912 28.1051 4.51558 27.2741 5.08968 26.3602C5.30266 27.0457 5.56673 27.7142 5.87968 28.3602C6.04968 28.7002 5.68968 29.6903 5.37968 30.2603C5.06968 30.8303 4.16968 32.6302 3.95968 32.9302L3.86968 33.0902C3.23674 34.0338 2.70069 35.0389 2.26968 36.0902C2.20968 36.3602 2.48968 37.9102 2.94968 38.1102H2.99968ZM43.6897 39.5902C43.2334 39.6171 42.776 39.6171 42.3197 39.5902H41.4297C41.0246 39.3855 40.68 39.0788 40.4297 38.7003C39.3093 37.4458 38.1173 36.2571 36.8597 35.1403C36.2198 34.6179 35.5522 34.1305 34.8597 33.6802L34.4097 33.3802C34.1197 33.1903 33.8897 33.0402 33.5997 32.8302C31.4597 31.2202 29.0097 29.5102 27.0897 29.0202C26.9995 28.9992 26.9047 29.0147 26.826 29.0635C26.7473 29.1122 26.6911 29.1901 26.6697 29.2802C26.6577 29.3242 26.6548 29.3702 26.6609 29.4154C26.6671 29.4606 26.6823 29.504 26.7056 29.5432C26.729 29.5824 26.7599 29.6165 26.7967 29.6435C26.8335 29.6705 26.8753 29.6898 26.9197 29.7003C27.6162 29.8898 28.2876 30.1617 28.9197 30.5103C28.5797 30.8603 28.0297 31.3402 27.4697 31.8502C26.5098 32.6631 25.6045 33.5384 24.7597 34.4702C24.3833 34.8309 24.1193 35.2928 23.9997 35.8002C24.0974 36.6701 24.2953 37.5258 24.5897 38.3502C24.7348 38.5345 24.9401 38.662 25.1697 38.7102C25.3567 38.7443 25.5302 38.831 25.6697 38.9602C25.7635 39.1395 25.8148 39.3379 25.8197 39.5402C25.6477 39.6059 25.4619 39.6266 25.2797 39.6002H24.3397C23.8597 39.6002 23.7797 39.3302 23.7797 39.2802V39.1702C23.4196 38.1968 23.1485 37.1927 22.9697 36.1702C22.8697 35.6902 22.7797 35.2802 22.6997 35.0002C22.6247 34.6648 22.6598 34.3142 22.7997 34.0002C22.7997 33.9402 22.7997 33.8802 22.8697 33.8302C23.1732 32.6498 23.554 31.4907 24.0097 30.3602C24.0605 30.263 24.087 30.1549 24.087 30.0452C24.087 29.9355 24.0605 29.8274 24.0097 29.7302C23.9636 29.65 23.8984 29.5825 23.8199 29.5336C23.7414 29.4848 23.652 29.4561 23.5597 29.4503C20.5354 29.1954 17.5297 28.7546 14.5597 28.1302C13.6797 27.9702 13.5597 27.9503 13.5597 27.9503H13.4297H13.0297C12.8437 27.9273 12.655 27.9508 12.4804 28.0189C12.3059 28.087 12.151 28.1974 12.0297 28.3402C10.9297 29.8302 8.02968 33.4002 7.55968 33.8602C7.08968 34.3202 6.97968 34.5902 7.02968 34.9802C7.02968 34.9802 7.02968 35.0402 7.02968 35.0802C7.02968 35.1202 8.29968 38.2302 8.78968 38.3702L9.20968 38.4702L9.81968 38.6202C9.89968 38.6202 10.1597 38.7103 10.2297 39.3802C10.242 39.4193 10.242 39.4612 10.2297 39.5002C10.1697 39.5702 9.92968 39.5802 9.83968 39.5802H9.73968H8.19968C8.19968 39.5802 7.86968 39.5802 7.48968 38.9002C7.10968 38.2202 5.66968 35.8102 4.72968 34.4002C4.59347 34.2456 4.50344 34.0558 4.46984 33.8525C4.43625 33.6492 4.46045 33.4405 4.53968 33.2502C4.53968 33.2502 4.60968 33.1402 4.64968 33.0602C5.02968 32.4102 5.88968 30.7203 5.98968 30.5103C6.08968 30.3003 6.87968 28.7702 6.48968 27.9802C5.6397 26.1529 5.14103 24.1819 5.01968 22.1702C5.10146 20.6202 5.5249 19.1075 6.25968 17.7402L6.34968 17.5602L6.23968 17.3903C5.23389 15.6594 4.68341 13.7017 4.63968 11.7003C4.69147 10.4838 4.95545 9.28577 5.41968 8.16022C5.98019 6.86735 6.19719 5.45163 6.04968 4.05023C5.93686 3.45282 5.74167 2.87393 5.46968 2.3302C5.28724 1.99679 5.16216 1.63514 5.09968 1.26025C5.09968 0.720253 5.27968 0.690216 5.39968 0.660216C5.51968 0.630216 6.66968 1.01024 7.09968 3.18024C7.29268 4.92348 7.08753 6.68776 6.49968 8.34021C6.49968 8.51021 6.39968 8.65025 6.36968 8.76025C6.18064 9.68777 6.1001 10.6341 6.12968 11.5802V11.8402C6.12968 13.2802 7.57968 15.3802 7.63968 15.4602C8.63968 17.0202 9.03968 17.0202 9.16968 17.0202C11.1768 17.0262 13.1813 17.1666 15.1697 17.4402C15.1697 17.4402 20.3097 18.2703 21.2297 18.5103C22.1497 18.7503 25.4597 19.1602 26.5097 19.2502C27.5266 19.3616 28.5527 19.3616 29.5697 19.2502C29.8797 19.1502 30.3297 18.6602 31.2097 17.6102L31.6297 17.1302C32.2656 16.3274 32.7717 15.4298 33.1297 14.4702C33.1197 14.2055 33.093 13.9416 33.0497 13.6802C33.0098 13.2378 33.0098 12.7927 33.0497 12.3502C33.0838 12.0112 33.1508 11.6763 33.2497 11.3502L33.5097 11.7003C33.7304 12.0029 33.9674 12.2934 34.2197 12.5703C34.4307 12.7647 34.6186 12.9828 34.7797 13.2202C34.8262 13.3094 34.8968 13.3838 34.9834 13.4351C35.0699 13.4863 35.1691 13.5124 35.2697 13.5103C35.8297 13.5103 37.1897 13.5103 37.7697 13.5103C38.678 13.7505 39.489 14.2678 40.0897 14.9902L40.2397 15.1202C40.5413 15.3611 40.8787 15.5534 41.2397 15.6902C41.3797 15.6902 41.4297 15.8802 41.3897 16.1202C41.3197 16.5302 41.1397 17.6102 40.6797 17.8302C40.2685 17.998 39.8477 18.1417 39.4197 18.2603C39.0783 18.344 38.7439 18.4543 38.4197 18.5902C37.9749 18.826 37.5966 19.1699 37.3197 19.5902L37.1797 19.8102C35.3197 22.7402 35.1797 23.1502 35.1797 23.3402C35.1145 24.886 35.2796 26.433 35.6697 27.9302C35.9852 29.1697 36.445 30.3679 37.0397 31.5002L37.3797 32.0502C37.9397 32.9802 38.9997 34.7102 39.3797 35.2102C40.1291 36.2071 40.9407 37.1556 41.8097 38.0502C42.2071 38.2659 42.648 38.389 43.0997 38.4102C43.1858 38.4083 43.2712 38.4262 43.3492 38.4626C43.4273 38.4991 43.4959 38.553 43.5497 38.6202C43.6868 38.9246 43.7184 39.2659 43.6397 39.5902H43.6897Z" fill="#192643"/>
</g>
<defs>
<clipPath id="clip0">
<rect width="199.06" height="40.87" fill="white"/>
</clipPath>
</defs>
</svg>
